<svg xmlns="http://www.w3.org/2000/svg" width="232" height="82" viewBox="0 0 232 82" fill="none"><g id="BR&#xC4;&#x92;Z Logo"><path id="Combined Shape" fill-rule="evenodd" clip-rule="evenodd" d="M139.708 1.60614V0H160.484V1.60614H139.708ZM128.09 27.7424C128.09 13.3601 127.652 8.17669 121.377 8.17669V7.44663H173.616V17.3025H172.886V17.0104C172.886 12.119 163.256 8.17669 146.475 8.17669H134.364V39.5694C136.553 37.4522 139.471 36.2111 142.827 36.2111C146.545 36.2111 149.412 37.4103 152.195 38.5742C154.819 39.6715 157.368 40.7375 160.483 40.7375C163.256 40.7375 165.882 39.1313 165.882 36.5761H166.612C166.612 40.8835 163.037 44.6068 157.273 44.6068C152.172 44.6068 148.772 42.5447 145.824 40.7566C143.628 39.4246 141.683 38.2446 139.471 38.1822C137.355 38.1092 135.531 39.2043 134.364 40.7375V79.7228H143.703C150.634 79.7228 172.886 78.9197 172.886 68.4068H173.616V80.4528H121.377V79.7228C127.652 79.7228 128.09 74.5393 128.09 60.1571V27.7424ZM0 7.64659V8.37554C6.26262 8.37554 6.69955 13.5511 6.69955 27.9115V60.2771C6.69955 74.6376 6.26262 79.8131 0 79.8131V80.5421H8.73854C12.6905 80.5421 15.9511 80.897 19.2551 81.2565H19.2551H19.2552L19.2554 81.2566C22.6482 81.6258 26.0868 82 30.3664 82C45.8773 82 54.543 73.5441 54.543 60.9332C54.543 49.8531 45.4404 42.7093 34.2988 42.7093C30.0911 42.7093 26.5693 44.3202 23.7651 45.6028C21.9104 46.4512 20.3696 47.1559 19.152 47.1559C18.2781 47.1559 17.0402 46.9373 17.0402 45.2607C17.0402 42.0668 22.1686 40.3608 28.3768 38.2955C37.8966 35.1287 49.9553 31.1173 49.9553 19.6015C49.9553 9.39608 40.5614 6.18868 30.2936 6.18868C27.0895 6.18868 23.23 6.55315 19.3705 6.91763L19.3704 6.91763C15.5109 7.28211 11.6514 7.64659 8.44725 7.64659H0ZM12.8893 9.25029C17.113 7.93817 21.3366 7.20922 26.07 7.20922C34.9542 7.20922 43.6927 10.7082 43.6927 19.7472C43.6927 27.9037 35.2914 31.9671 27.7962 35.5922C21.7603 38.5116 16.3119 41.1467 16.3119 45.4065C16.3119 47.1559 17.5499 47.8849 18.8607 47.8849C20.8197 47.8849 22.9149 46.9756 25.1947 45.9863C27.915 44.8057 30.898 43.5112 34.2259 43.5112C43.3286 43.5112 48.2804 52.696 48.2804 61.4435C48.2804 73.5441 39.7604 80.9795 26.2156 80.9795C20.8269 80.9795 17.3314 80.2505 12.8893 78.6468V9.25029ZM77.2119 80.4528H57.6159V79.7248C63.8808 79.7248 64.3179 74.5554 64.3179 60.2122V27.8855C64.3179 13.5423 63.8808 8.37292 57.6159 8.37292V7.64484H66.3576C70.3111 7.64484 73.5729 7.2904 76.8781 6.93126C80.2723 6.56245 83.7121 6.18868 87.9934 6.18868C103.51 6.18868 112.179 14.78 112.179 26.6477C112.179 36.6224 104.02 45.6506 91.3444 45.6506C87.2401 45.6506 83.921 43.9767 81.2614 42.6354C79.4837 41.7388 78.0006 40.9909 76.7748 40.9909C75.9007 40.9909 74.6623 41.2093 74.6623 42.8839C74.6623 45.051 77.8854 46.4395 81.9464 48.1889C86.7537 50.2599 92.7352 52.8366 95.9338 57.8095C96.698 58.9987 97.4802 60.2585 98.2815 61.5492L98.2816 61.5493L98.2816 61.5493C103.515 69.9784 109.566 79.7248 116.768 79.7248V80.4528H105.623C103.011 80.4528 101.196 77.6665 95.0725 68.2676C93.3393 65.6073 91.261 62.4171 88.7219 58.6104C85.086 53.1409 81.2766 50.4086 78.4349 48.3703C75.7536 46.4471 73.9338 45.1418 73.9338 42.7383C73.9338 40.9909 75.1722 40.2628 76.4834 40.2628C78.389 40.2628 80.1084 41.0786 82.0226 41.9868C84.4259 43.127 87.1361 44.4129 90.9073 44.4129C100.013 44.4129 105.914 35.4575 105.914 26.7205C105.914 14.6344 97.3907 7.20799 83.8411 7.20799C78.4503 7.20799 74.9536 7.93607 70.5099 9.53785V60.2122C70.5099 74.5554 70.947 79.7248 77.2119 79.7248V80.4528ZM230.037 68.4545V80.4528H178.993L224.511 8.46302H203.788C191.282 8.46302 182.265 12.3897 182.265 17.2618V17.5526H181.538V7.73585H232L186.483 79.7257H196.88C203.788 79.7257 229.31 78.9258 229.31 68.4545H230.037Z" fill="black"></path><mask id="mask0_0_176" style="mask-type:luminance" maskUnits="userSpaceOnUse" x="0" y="0" width="232" height="82"><path id="Combined Shape_2" fill-rule="evenodd" clip-rule="evenodd" d="M139.708 1.60614V0H160.484V1.60614H139.708ZM128.09 27.7424C128.09 13.3601 127.652 8.17669 121.377 8.17669V7.44663H173.616V17.3025H172.886V17.0104C172.886 12.119 163.256 8.17669 146.475 8.17669H134.364V39.5694C136.553 37.4522 139.471 36.2111 142.827 36.2111C146.545 36.2111 149.412 37.4103 152.195 38.5742C154.819 39.6715 157.368 40.7375 160.483 40.7375C163.256 40.7375 165.882 39.1313 165.882 36.5761H166.612C166.612 40.8835 163.037 44.6068 157.273 44.6068C152.172 44.6068 148.772 42.5447 145.824 40.7566C143.628 39.4246 141.683 38.2446 139.471 38.1822C137.355 38.1092 135.531 39.2043 134.364 40.7375V79.7228H143.703C150.634 79.7228 172.886 78.9197 172.886 68.4068H173.616V80.4528H121.377V79.7228C127.652 79.7228 128.09 74.5393 128.09 60.1571V27.7424ZM0 7.64659V8.37554C6.26262 8.37554 6.69955 13.5511 6.69955 27.9115V60.2771C6.69955 74.6376 6.26262 79.8131 0 79.8131V80.5421H8.73854C12.6905 80.5421 15.9511 80.897 19.2551 81.2565H19.2551H19.2552L19.2554 81.2566C22.6482 81.6258 26.0868 82 30.3664 82C45.8773 82 54.543 73.5441 54.543 60.9332C54.543 49.8531 45.4404 42.7093 34.2988 42.7093C30.0911 42.7093 26.5693 44.3202 23.7651 45.6028C21.9104 46.4512 20.3696 47.1559 19.152 47.1559C18.2781 47.1559 17.0402 46.9373 17.0402 45.2607C17.0402 42.0668 22.1686 40.3608 28.3768 38.2955C37.8966 35.1287 49.9553 31.1173 49.9553 19.6015C49.9553 9.39608 40.5614 6.18868 30.2936 6.18868C27.0895 6.18868 23.23 6.55315 19.3705 6.91763L19.3704 6.91763C15.5109 7.28211 11.6514 7.64659 8.44725 7.64659H0ZM12.8893 9.25029C17.113 7.93817 21.3366 7.20922 26.07 7.20922C34.9542 7.20922 43.6927 10.7082 43.6927 19.7472C43.6927 27.9037 35.2914 31.9671 27.7962 35.5922C21.7603 38.5116 16.3119 41.1467 16.3119 45.4065C16.3119 47.1559 17.5499 47.8849 18.8607 47.8849C20.8197 47.8849 22.9149 46.9756 25.1947 45.9863C27.915 44.8057 30.898 43.5112 34.2259 43.5112C43.3286 43.5112 48.2804 52.696 48.2804 61.4435C48.2804 73.5441 39.7604 80.9795 26.2156 80.9795C20.8269 80.9795 17.3314 80.2505 12.8893 78.6468V9.25029ZM77.2119 80.4528H57.6159V79.7248C63.8808 79.7248 64.3179 74.5554 64.3179 60.2122V27.8855C64.3179 13.5423 63.8808 8.37292 57.6159 8.37292V7.64484H66.3576C70.3111 7.64484 73.5729 7.2904 76.8781 6.93126C80.2723 6.56245 83.7121 6.18868 87.9934 6.18868C103.51 6.18868 112.179 14.78 112.179 26.6477C112.179 36.6224 104.02 45.6506 91.3444 45.6506C87.2401 45.6506 83.921 43.9767 81.2614 42.6354C79.4837 41.7388 78.0006 40.9909 76.7748 40.9909C75.9007 40.9909 74.6623 41.2093 74.6623 42.8839C74.6623 45.051 77.8854 46.4395 81.9464 48.1889C86.7537 50.2599 92.7352 52.8366 95.9338 57.8095C96.698 58.9987 97.4802 60.2585 98.2815 61.5492L98.2816 61.5493L98.2816 61.5493C103.515 69.9784 109.566 79.7248 116.768 79.7248V80.4528H105.623C103.011 80.4528 101.196 77.6665 95.0725 68.2676C93.3393 65.6073 91.261 62.4171 88.7219 58.6104C85.086 53.1409 81.2766 50.4086 78.4349 48.3703C75.7536 46.4471 73.9338 45.1418 73.9338 42.7383C73.9338 40.9909 75.1722 40.2628 76.4834 40.2628C78.389 40.2628 80.1084 41.0786 82.0226 41.9868C84.4259 43.127 87.1361 44.4129 90.9073 44.4129C100.013 44.4129 105.914 35.4575 105.914 26.7205C105.914 14.6344 97.3907 7.20799 83.8411 7.20799C78.4503 7.20799 74.9536 7.93607 70.5099 9.53785V60.2122C70.5099 74.5554 70.947 79.7248 77.2119 79.7248V80.4528ZM230.037 68.4545V80.4528H178.993L224.511 8.46302H203.788C191.282 8.46302 182.265 12.3897 182.265 17.2618V17.5526H181.538V7.73585H232L186.483 79.7257H196.88C203.788 79.7257 229.31 78.9258 229.31 68.4545H230.037Z" fill="white"></path></mask><g mask="url(#mask0_0_176)"></g></g></svg>